<svg xmlns="http://www.w3.org/2000/svg" width="64" height="64" viewBox="0 0 64 64" fill="none"><defs><filter id="glow_embajador_0_64" x="-50%" y="-50%" width="200%" height="200%"><feGaussianBlur stdDeviation="2"/></filter></defs><title>ArcusX — Embajador</title><path d="M 32 4 L 54 14 L 54 36 Q 54 54 32 62 Q 10 54 10 36 L 10 14 Z" fill="none" stroke="#10dd88" stroke-width="2" stroke-opacity="0.6" filter="url(#glow_embajador_0_64)"/><path d="M 32 4 L 54 14 L 54 36 Q 54 54 32 62 Q 10 54 10 36 L 10 14 Z" fill="none" stroke="#10dd88" stroke-width="1.5"/><g fill="none" stroke="#10dd88" stroke-width="2.5" stroke-linecap="round" stroke-linejoin="round"><path d="M 19 31 L 33 25 L 33 41 L 19 35 Z" fill="#10dd88" fill-opacity="0.15" stroke-linejoin="round"/><line x1="24" y1="35.5" x2="24" y2="42"/><path d="M 38 28 A 9 9 0 0 1 38 42" stroke-width="2.2"/><path d="M 42 25 A 14 14 0 0 1 42 45" stroke-width="2.2"/></g></svg>